<?xml version="1.0" standalone="no"?>
<!DOCTYPE svg PUBLIC "-//W3C//DTD SVG 20010904//EN"
 "http://www.w3.org/TR/2001/REC-SVG-20010904/DTD/svg10.dtd">
<svg version="1.0" xmlns="http://www.w3.org/2000/svg"
 width="1024.000000pt" height="1024.000000pt" viewBox="0 0 1024.000000 1024.000000"
 preserveAspectRatio="xMidYMid meet">
<metadata>
Created by potrace 1.11, written by Peter Selinger 2001-2013
</metadata>
<g transform="translate(0.000000,1024.000000) scale(0.100000,-0.100000)"
fill="#000000" stroke="none">
<path d="M525 9218 c-3 -7 -4 -317 -3 -688 l3 -675 1368 -3 1367 -2 -2 -2228
-3 -2227 -26 -63 c-45 -105 -90 -171 -185 -271 -101 -106 -202 -183 -339 -258
-460 -254 -1088 -385 -1965 -412 l-215 -6 -3 -683 c-2 -630 -1 -683 15 -689
20 -8 588 13 758 27 1307 112 2271 508 2832 1165 238 278 393 579 471 915 l27
115 0 2995 0 2995 -2048 3 c-1633 2 -2049 0 -2052 -10z"/>
<path d="M4720 9224 c0 -6 16 -25 140 -165 1015 -1149 1750 -1984 1750 -1989
0 -3 -46 -57 -103 -121 -56 -64 -183 -208 -282 -320 -99 -112 -467 -529 -818
-927 l-639 -723 69 -77 c38 -42 136 -153 218 -247 82 -93 215 -244 295 -335
81 -91 370 -419 644 -730 274 -311 590 -668 701 -795 112 -126 511 -579 887
-1005 l684 -775 913 -3 913 -2 -59 67 c-33 38 -314 356 -624 708 -311 352
-834 946 -1164 1320 -329 374 -649 736 -710 805 -689 775 -937 1063 -929 1079
5 10 326 377 714 816 388 439 796 902 908 1028 111 127 202 233 202 238 0 4
-327 378 -726 831 -399 453 -826 936 -948 1075 l-221 252 -907 1 c-500 0 -908
-3 -908 -6z"/>
</g>
</svg>
